<svg xmlns="http://www.w3.org/2000/svg" viewBox="0 0 96 48" role="img" aria-label="Green energy node shield" data-component-shape="shield-module" data-terminal-left="25 24" data-terminal-right="71 24">
  <defs>
    <radialGradient id="spr-component-metal-steel-dented-two-core" cx="50%" cy="50%" r="55%">
      <stop offset="0" stop-color="#ffffff"/>
      <stop offset="0.35" stop-color="#e8fff2"/>
      <stop offset="0.65" stop-color="#45f08f"/>
      <stop offset="1" stop-color="#031a10"/>
    </radialGradient>
    <radialGradient id="spr-component-metal-steel-dented-two-glow" cx="50%" cy="50%" r="70%">
      <stop offset="0" stop-color="#64f5d6" stop-opacity="0.45"/>
      <stop offset="1" stop-color="#45f08f" stop-opacity="0"/>
    </radialGradient>
  </defs>

  <path d="M25 17H30M25 24H30M25 31H30M66 17H71M66 24H71M66 31H71" fill="none" stroke="#64f5d6" stroke-width="3" stroke-linecap="round"/>
  <ellipse cx="48" cy="24" rx="22" ry="16" fill="url(#spr-component-metal-steel-dented-two-glow)"/>
  <path d="M34 8H62L69 15V33L62 40H34L27 33V15Z" fill="url(#spr-component-metal-steel-dented-two-core)" stroke="#d8f7ff" stroke-width="2.2" stroke-linejoin="round" opacity="0.95"/>
  <path d="M37 16H59M34 24H62M37 32H55" fill="none" stroke="#052836" stroke-width="2" stroke-linecap="round" opacity="0.52"/>
  <path d="M42 13L47 20L44 25L51 34" fill="none" stroke="#06151b" stroke-width="2.5" stroke-linecap="round" stroke-linejoin="round" opacity="0.45"/>
  <path d="M57 12L53 19L58 25L52 36" fill="none" stroke="#06151b" stroke-width="2.5" stroke-linecap="round" stroke-linejoin="round" opacity="0.45"/>
</svg>
