<svg xmlns="http://www.w3.org/2000/svg" viewBox="0 0 96 48" role="img" aria-label="Capacitor" data-component-shape="capacitor" data-terminal-left="31 24" data-terminal-right="65 24">
  <defs>
    <linearGradient id="spr-component-basic-purple-lab-real-normal-body" x1="0" y1="0" x2="1" y2="1">
<stop offset="0" stop-color="#e7ffff"/>
      <stop offset="0.48" stop-color="#caa6ff"/>
      <stop offset="1" stop-color="#06171b"/>
    </linearGradient>
    <radialGradient id="spr-component-basic-purple-lab-real-normal-glow" cx="50%" cy="50%" r="60%">
<stop offset="0" stop-color="#e7ffff" stop-opacity="0.55"/>
      <stop offset="1" stop-color="#caa6ff" stop-opacity="0"/>
    </radialGradient>
  </defs>

  <path d="M36 8C39 8 41 10.5 41 13.5V34.5C41 37.5 39 40 36 40C33 40 31 37.5 31 34.5V13.5C31 10.5 33 8 36 8Z" fill="url(#spr-component-basic-purple-lab-real-normal-body)" stroke="#e7ffff" stroke-width="2.2"/>
  <path d="M60 8C63 8 65 10.5 65 13.5V34.5C65 37.5 63 40 60 40C57 40 55 37.5 55 34.5V13.5C55 10.5 57 8 60 8Z" fill="url(#spr-component-basic-purple-lab-real-normal-body)" stroke="#e7ffff" stroke-width="2.2"/>
  <path d="M46 10V38M50 10V38" fill="none" stroke="#e7ffff" stroke-width="1.8" stroke-linecap="round" opacity="0.65"/>
  <ellipse cx="48" cy="24" rx="21" ry="16" fill="url(#spr-component-basic-purple-lab-real-normal-glow)"/>
</svg>
