<svg xmlns="http://www.w3.org/2000/svg" viewBox="0 0 960 720" role="img" aria-labelledby="title desc">
  <title id="title">Prévia arcade do Brikaya</title>
  <desc id="desc">Tabuleiro neon com blocos, bola e raquete.</desc>
  <defs>
    <linearGradient id="bg" x1="0" y1="0" x2="1" y2="1">
      <stop offset="0" stop-color="#12122a"/>
      <stop offset="0.52" stop-color="#080816"/>
      <stop offset="1" stop-color="#1c1240"/>
    </linearGradient>
    <linearGradient id="cyan" x1="0" y1="0" x2="1" y2="0">
      <stop offset="0" stop-color="#00e5ff"/>
      <stop offset="1" stop-color="#7cf4ff"/>
    </linearGradient>
    <filter id="glow" x="-30%" y="-30%" width="160%" height="160%">
      <feGaussianBlur stdDeviation="8" result="blur"/>
      <feMerge>
        <feMergeNode in="blur"/>
        <feMergeNode in="SourceGraphic"/>
      </feMerge>
    </filter>
  </defs>
  <rect width="960" height="720" rx="56" fill="url(#bg)"/>
  <path d="M80 590 C200 640 340 620 470 580 C640 528 770 540 880 602" fill="none" stroke="#244c7a" stroke-width="3" opacity="0.7"/>
  <g opacity="0.26" stroke="#244c7a" stroke-width="2">
    <path d="M120 84h720M120 164h720M120 244h720M120 324h720M120 404h720M120 484h720"/>
    <path d="M160 64v520M280 64v520M400 64v520M520 64v520M640 64v520M760 64v520"/>
  </g>
  <g filter="url(#glow)">
    <rect x="164" y="104" width="132" height="58" rx="14" fill="#00e5ff"/>
    <rect x="316" y="104" width="132" height="58" rx="14" fill="#ff2bd6"/>
    <rect x="468" y="104" width="132" height="58" rx="14" fill="#ffe45e"/>
    <rect x="620" y="104" width="132" height="58" rx="14" fill="#39ff88"/>
    <rect x="164" y="184" width="132" height="58" rx="14" fill="#9b5cff"/>
    <rect x="316" y="184" width="132" height="58" rx="14" fill="#39ff88"/>
    <rect x="468" y="184" width="132" height="58" rx="14" fill="#00e5ff"/>
    <rect x="620" y="184" width="132" height="58" rx="14" fill="#ff2bd6"/>
  </g>
  <g fill="none" stroke="#f8f7ff" stroke-width="6" opacity="0.28">
    <rect x="140" y="76" width="640" height="516" rx="34"/>
  </g>
  <circle cx="492" cy="382" r="30" fill="#f8f7ff" filter="url(#glow)"/>
  <path d="M492 382 650 510" stroke="#7cf4ff" stroke-width="5" stroke-linecap="round" opacity="0.8"/>
  <rect x="354" y="548" width="252" height="38" rx="19" fill="url(#cyan)" filter="url(#glow)"/>
  <rect x="398" y="558" width="164" height="12" rx="6" fill="#f8f7ff" opacity="0.48"/>
  <g fill="#f8f7ff" font-family="ui-monospace, SFMono-Regular, Menlo, monospace" text-anchor="middle">
    <text x="480" y="666" font-size="42" font-weight="800">BRIKAYA</text>
    <text x="480" y="698" font-size="20" fill="#9cb7d8">grátis • sem cadastro • offline</text>
  </g>
</svg>
