<svg xmlns="http://www.w3.org/2000/svg" viewBox="0 0 96 48" role="img" aria-label="Purple electric capacitor" data-component-shape="capacitor" data-terminal-left="31 24" data-terminal-right="65 24">
  <path d="M24 24H31M65 24H72" fill="none" stroke="#b873ff" stroke-width="2.2" stroke-linecap="round" opacity="0.9"/>
  <path d="M36 8C39 8 41 10.5 41 13.5V34.5C41 37.5 39 40 36 40C33 40 31 37.5 31 34.5V13.5C31 10.5 33 8 36 8Z" fill="rgba(20,8,40,0.55)" stroke="#b873ff" stroke-width="2.2"/>
  <path d="M60 8C63 8 65 10.5 65 13.5V34.5C65 37.5 63 40 60 40C57 40 55 37.5 55 34.5V13.5C55 10.5 57 8 60 8Z" fill="rgba(20,8,40,0.55)" stroke="#b873ff" stroke-width="2.2"/>
  <path d="M46 10V38M50 10V38" fill="none" stroke="#f4e4ff" stroke-width="1.8" stroke-linecap="round" opacity="0.72"/>
</svg>
