<!-- public/assets/visual/bricks/spr-brick-metal-steel-dented-two.svg -->
<svg xmlns="http://www.w3.org/2000/svg" viewBox="0 0 96 48" role="img" aria-label="Tijolo metálico com dois amassados">
  <defs>
    <linearGradient id="metal-steel-dented-two" x1="0" y1="0" x2="1" y2="1">
      <stop offset="0" stop-color="#edf5fb"/>
      <stop offset="0.22" stop-color="#7f8d9d"/>
      <stop offset="0.5" stop-color="#b9c4d0"/>
      <stop offset="0.78" stop-color="#4d5968"/>
      <stop offset="1" stop-color="#e7f0f8"/>
    </linearGradient>
    <radialGradient id="metal-dent-shadow-two-a" cx="0.35" cy="0.45" r="0.34">
      <stop offset="0" stop-color="#1f2937" stop-opacity="0.82"/>
      <stop offset="0.58" stop-color="#596879" stop-opacity="0.45"/>
      <stop offset="1" stop-color="#f8fcff" stop-opacity="0"/>
    </radialGradient>
    <radialGradient id="metal-dent-shadow-two-b" cx="0.68" cy="0.58" r="0.3">
      <stop offset="0" stop-color="#1f2937" stop-opacity="0.76"/>
      <stop offset="0.58" stop-color="#596879" stop-opacity="0.38"/>
      <stop offset="1" stop-color="#f8fcff" stop-opacity="0"/>
    </radialGradient>
  </defs>
  <rect x="4" y="5" width="88" height="38" rx="8" fill="url(#metal-steel-dented-two)" stroke="#edf5fb" stroke-width="4"/>
  <path d="M12 15h72" stroke="#ffffff" stroke-width="5" stroke-linecap="round" opacity="0.34"/>
  <path d="M13 36h70" stroke="#111827" stroke-width="5" stroke-linecap="round" opacity="0.56"/>
  <ellipse cx="35" cy="22" rx="16" ry="10" fill="url(#metal-dent-shadow-two-a)"/>
  <ellipse cx="63" cy="29" rx="13" ry="8" fill="url(#metal-dent-shadow-two-b)"/>
  <path d="M25 22c7-8 19-9 28-2M54 29c6-5 14-5 20 0" fill="none" stroke="#f4fbff" stroke-width="3" stroke-linecap="round" opacity="0.5"/>
  <path d="M31 10l-3 9 4 7-3 12M49 10l2 8-4 7 3 13M67 10l-2 9 3 8-2 11" stroke="#1f2937" stroke-width="3" stroke-linecap="round" opacity="0.46"/>
  <circle cx="18" cy="24" r="3" fill="#202938" opacity="0.82"/>
  <circle cx="78" cy="24" r="3" fill="#202938" opacity="0.82"/>
</svg>
