<svg xmlns="http://www.w3.org/2000/svg" viewBox="0 0 96 48" role="img" aria-label="Chip integrado">
  <defs>
    <linearGradient id="spr-brick-basic-green-garage-real-normal-board" x1="0" y1="0" x2="1" y2="1">
      <stop offset="0" stop-color="#323627"/>
      <stop offset="0.52" stop-color="#1a1b16"/>
      <stop offset="1" stop-color="#0c5632"/>
    </linearGradient>
    <linearGradient id="spr-brick-basic-green-garage-real-normal-part" x1="0" y1="0" x2="1" y2="1">
      <stop offset="0" stop-color="#c8ffd9"/>
      <stop offset="0.48" stop-color="#45f08f"/>
      <stop offset="1" stop-color="#0c5632"/>
    </linearGradient>
  </defs>
  <rect x="4" y="5" width="88" height="38" rx="8" fill="url(#spr-brick-basic-green-garage-real-normal-board)" stroke="#f5e5ad" stroke-width="3"/>
  <path d="M10 15h13M73 15h13M10 33h16M70 33h16M48 7v7M48 34v7" stroke="#e6c66a" stroke-width="2.2" stroke-linecap="round" opacity=".76"/>
  <path d="M14 24h68M30 10v28M66 10v28" stroke="#ffd36b2b" stroke-width="1.4" opacity=".9"/>
  <circle cx="14" cy="15" r="2.1" fill="#e6c66a" opacity=".88"/>
  <circle cx="82" cy="33" r="2.1" fill="#e6c66a" opacity=".88"/>
  <rect x="31" y="12" width="34" height="24" rx="4" fill="#07140f" stroke="#c8ffd9" stroke-width="2"/>
  <rect x="37" y="18" width="22" height="12" rx="2" fill="url(#spr-brick-basic-green-garage-real-normal-part)" opacity=".9"/>
  <path d="M25 16h6M25 22h6M25 28h6M25 34h6M65 16h6M65 22h6M65 28h6M65 34h6" stroke="#e6c66a" stroke-width="2.2" stroke-linecap="round"/>
  <circle cx="39" cy="18" r="1.6" fill="#c8ffd9"/>
  <path d="M42 24h12" stroke="#06120d" stroke-width="2" stroke-linecap="round" opacity=".65"/>
</svg>
