<svg xmlns="http://www.w3.org/2000/svg" viewBox="0 0 96 48" role="img" aria-label="Indutor">
  <defs>
    <linearGradient id="spr-brick-basic-purple-sunset-normal-body" x1="0" y1="0" x2="1" y2="1">
      <stop offset="0" stop-color="#ead6ff"/>
      <stop offset="0.48" stop-color="#b873ff"/>
      <stop offset="1" stop-color="#4a237a"/>
    </linearGradient>
  </defs>
  <path d="M8 24h15M73 24h15" stroke="#ffcf66" stroke-width="4" stroke-linecap="round"/>
  <path d="M23 24c0-13 9-13 9 0s9 13 9 0 9-13 9 0 9 13 9 0 9-13 9 0 5 9 5 0" fill="none" stroke="url(#spr-brick-basic-purple-sunset-normal-body)" stroke-width="6" stroke-linecap="round"/>
  <path d="M25 18c13 7 30 7 45 0" fill="none" stroke="#ead6ff" stroke-width="1.8" stroke-linecap="round" opacity=".58"/>
  <path d="M28 31c12-5 28-5 40 0" fill="none" stroke="#ffd16638" stroke-width="1.8" stroke-linecap="round"/>
  <circle cx="10" cy="24" r="2" fill="#ffcf66" opacity=".9"/>
  <circle cx="86" cy="24" r="2" fill="#ffcf66" opacity=".9"/>
</svg>
