<svg xmlns="http://www.w3.org/2000/svg" viewBox="0 0 96 48" role="img" aria-label="Chip integrado">
  <defs>
    <linearGradient id="spr-brick-basic-green-garage-real-normal-body" x1="0" y1="0" x2="1" y2="1">
      <stop offset="0" stop-color="#c8ffd9"/>
      <stop offset="0.48" stop-color="#45f08f"/>
      <stop offset="1" stop-color="#0c5632"/>
    </linearGradient>
  </defs>
  <path d="M24 14h8M24 20h8M24 28h8M24 34h8M64 14h8M64 20h8M64 28h8M64 34h8" stroke="#e6c66a" stroke-width="3" stroke-linecap="round"/>
  <path d="M36 7v6M44 7v6M52 7v6M60 7v6M36 35v6M44 35v6M52 35v6M60 35v6" stroke="#e6c66a" stroke-width="2.5" stroke-linecap="round" opacity=".9"/>
  <rect x="32" y="11" width="32" height="26" rx="4" fill="#161914" stroke="#c8ffd9" stroke-width="2.2"/>
  <rect x="38" y="17" width="20" height="14" rx="2.5" fill="url(#spr-brick-basic-green-garage-real-normal-body)" opacity=".95"/>
  <circle cx="39" cy="17" r="1.7" fill="#c8ffd9"/>
  <path d="M42 24h12M42 28h8" stroke="#03170d" stroke-width="2" stroke-linecap="round" opacity=".7"/>
  <path d="M33 14l4-3M59 37l5-5" stroke="#ffd36b2b" stroke-width="2" stroke-linecap="round"/>
</svg>
