<svg xmlns="http://www.w3.org/2000/svg" viewBox="0 0 96 48" role="img" aria-label="Resistor">
  <defs>
    <linearGradient id="spr-brick-basic-blue-metro-real-normal-body" x1="0" y1="0" x2="1" y2="1">
      <stop offset="0" stop-color="#d8f7ff"/>
      <stop offset="0.48" stop-color="#45d7ff"/>
      <stop offset="1" stop-color="#064e67"/>
    </linearGradient>
  </defs>
  <path d="M8 24h19M69 24h19" stroke="#8fc7ff" stroke-width="4" stroke-linecap="round"/>
  <path d="M27 15h42c6 0 10 4 10 9s-4 9-10 9H27c-6 0-10-4-10-9s4-9 10-9Z" fill="url(#spr-brick-basic-blue-metro-real-normal-body)" stroke="#d8f7ff" stroke-width="2"/>
  <path d="M35 16v16M45 16v16M56 16v16M66 17v14" stroke="#031923" stroke-width="2.3" opacity=".58"/>
  <path d="M31 20h33" stroke="#d8f7ff" stroke-width="2" stroke-linecap="round" opacity=".62"/>
  <path d="M19 28h8M69 20h8" stroke="#82b8ff2f" stroke-width="2" stroke-linecap="round"/>
  <circle cx="10" cy="24" r="2" fill="#8fc7ff" opacity=".9"/>
  <circle cx="86" cy="24" r="2" fill="#8fc7ff" opacity=".9"/>
</svg>
