<svg xmlns="http://www.w3.org/2000/svg" viewBox="0 0 96 48" role="img" aria-label="Shielded module" data-component-shape="shield-module" data-terminal-left="0 24" data-terminal-right="96 24">
  <defs>
    <linearGradient id="spr-brick-metal-steel-sunset-dented-one-body" x1="0" y1="0" x2="1" y2="1">
      <stop offset="0" stop-color="#ffe7a6"/>
      <stop offset="0.48" stop-color="#e0b38b"/>
      <stop offset="1" stop-color="#351225"/>
    </linearGradient>
    <radialGradient id="spr-brick-metal-steel-sunset-dented-one-glow" cx="50%" cy="50%" r="60%">
      <stop offset="0" stop-color="#ffe7a6" stop-opacity="0.55"/>
      <stop offset="1" stop-color="#e0b38b" stop-opacity="0"/>
    </radialGradient>
  </defs>
  <path d="M0 24H25M71 24H96" fill="none" stroke="#ffd166" stroke-width="4" stroke-linecap="round"/>
  <path d="M25 17H30M25 24H30M25 31H30M66 17H71M66 24H71M66 31H71" fill="none" stroke="#ffd166" stroke-width="3" stroke-linecap="round"/>
  <path d="M34 8H62L69 15V33L62 40H34L27 33V15Z" fill="url(#spr-brick-metal-steel-sunset-dented-one-body)" stroke="#ffe7a6" stroke-width="2.2" stroke-linejoin="round"/>
  <path d="M37 16H59M34 24H62M37 32H55" fill="none" stroke="#351225" stroke-width="2" stroke-linecap="round" opacity="0.52"/>
  <path d="M42 13L47 20L44 25L51 34" fill="none" stroke="#170812" stroke-width="2.5" stroke-linecap="round" stroke-linejoin="round"/>
  
</svg>
