<!-- public/assets/visual/bricks/spr-brick-metal-steel-high-contrast-dented-two.svg -->
<svg xmlns="http://www.w3.org/2000/svg" viewBox="0 0 96 48" role="img" aria-label="Tijolo metálico alto contraste com dois amassados">
  <rect x="4" y="5" width="88" height="38" rx="8" fill="#c8d3df" stroke="#ffffff" stroke-width="4"/>
  <path d="M10 14h76" stroke="#ffffff" stroke-width="6" stroke-linecap="round" opacity="0.9"/>
  <path d="M12 36h72" stroke="#050816" stroke-width="6" stroke-linecap="round" opacity="0.9"/>
  <ellipse cx="35" cy="22" rx="17" ry="10" fill="#050816" opacity="0.78"/>
  <ellipse cx="64" cy="30" rx="13" ry="8" fill="#050816" opacity="0.66"/>
  <path d="M24 22c8-9 22-9 31-2M54 29c6-5 15-5 21 0" fill="none" stroke="#facc15" stroke-width="4" stroke-linecap="round"/>
  <path d="M30 10l-3 9 4 7-3 12M49 10l2 8-4 7 3 13M67 10l-2 9 3 8-2 11" stroke="#050816" stroke-width="4" stroke-linecap="round" opacity="0.7"/>
  <circle cx="18" cy="24" r="3.5" fill="#050816"/>
  <circle cx="78" cy="24" r="3.5" fill="#050816"/>
</svg>
