<svg xmlns="http://www.w3.org/2000/svg" viewBox="0 0 96 48" role="img" aria-label="Indutor">
  <defs>
    <linearGradient id="spr-brick-basic-purple-orbital-real-normal-board" x1="0" y1="0" x2="1" y2="1">
      <stop offset="0" stop-color="#1c2e64"/>
      <stop offset="0.52" stop-color="#090f24"/>
      <stop offset="1" stop-color="#4a237a"/>
    </linearGradient>
    <linearGradient id="spr-brick-basic-purple-orbital-real-normal-part" x1="0" y1="0" x2="1" y2="1">
      <stop offset="0" stop-color="#ead6ff"/>
      <stop offset="0.48" stop-color="#b873ff"/>
      <stop offset="1" stop-color="#4a237a"/>
    </linearGradient>
  </defs>
  <rect x="4" y="5" width="88" height="38" rx="8" fill="url(#spr-brick-basic-purple-orbital-real-normal-board)" stroke="#e6f2ff" stroke-width="3"/>
  <path d="M10 15h13M73 15h13M10 33h16M70 33h16M48 7v7M48 34v7" stroke="#a8cfff" stroke-width="2.2" stroke-linecap="round" opacity=".76"/>
  <path d="M14 24h68M30 10v28M66 10v28" stroke="#9cc7ff35" stroke-width="1.4" opacity=".9"/>
  <circle cx="14" cy="15" r="2.1" fill="#a8cfff" opacity=".88"/>
  <circle cx="82" cy="33" r="2.1" fill="#a8cfff" opacity=".88"/>
  <path d="M12 24h14M70 24h14" stroke="#a8cfff" stroke-width="3" stroke-linecap="round"/>
  <path d="M26 24c0-12 9-12 9 0s9 12 9 0 9-12 9 0 9 12 9 0 8-12 8 0" fill="none" stroke="url(#spr-brick-basic-purple-orbital-real-normal-part)" stroke-width="5" stroke-linecap="round"/>
  <path d="M27 18c13 7 27 7 42 0" fill="none" stroke="#ead6ff" stroke-width="1.6" stroke-linecap="round" opacity=".55"/>
</svg>
