<svg xmlns="http://www.w3.org/2000/svg" viewBox="0 0 96 48" role="img" aria-label="Capacitor">
  <defs>
    <linearGradient id="spr-brick-basic-red-normal-board" x1="0" y1="0" x2="1" y2="1">
      <stop offset="0" stop-color="#122a46"/>
      <stop offset="0.52" stop-color="#101a33"/>
      <stop offset="1" stop-color="#7b1630"/>
    </linearGradient>
    <linearGradient id="spr-brick-basic-red-normal-part" x1="0" y1="0" x2="1" y2="1">
      <stop offset="0" stop-color="#ffd0d8"/>
      <stop offset="0.48" stop-color="#ff5d73"/>
      <stop offset="1" stop-color="#7b1630"/>
    </linearGradient>
  </defs>
  <rect x="4" y="5" width="88" height="38" rx="8" fill="url(#spr-brick-basic-red-normal-board)" stroke="#bdfcff" stroke-width="3"/>
  <path d="M10 15h13M73 15h13M10 33h16M70 33h16M48 7v7M48 34v7" stroke="#64f5d6" stroke-width="2.2" stroke-linecap="round" opacity=".76"/>
  <path d="M14 24h68M30 10v28M66 10v28" stroke="#42f5d733" stroke-width="1.4" opacity=".9"/>
  <circle cx="14" cy="15" r="2.1" fill="#64f5d6" opacity=".88"/>
  <circle cx="82" cy="33" r="2.1" fill="#64f5d6" opacity=".88"/>
  <path d="M13 24h25M58 24h25" stroke="#64f5d6" stroke-width="3" stroke-linecap="round"/>
  <rect x="38" y="12" width="6" height="24" rx="2" fill="url(#spr-brick-basic-red-normal-part)" stroke="#ffd0d8" stroke-width="1.4"/>
  <rect x="52" y="12" width="6" height="24" rx="2" fill="url(#spr-brick-basic-red-normal-part)" stroke="#ffd0d8" stroke-width="1.4"/>
  <path d="M69 15v8M65 19h8" stroke="#ffd0d8" stroke-width="2.2" stroke-linecap="round"/>
  <path d="M23 16h8M23 32h8" stroke="#ff5d73" stroke-width="2" stroke-linecap="round" opacity=".75"/>
</svg>
