<svg xmlns="http://www.w3.org/2000/svg" viewBox="0 0 96 48" role="img" aria-label="Square inductor" data-component-shape="square-inductor" data-terminal-left="24 24" data-terminal-right="72 24">
  <defs>
    <linearGradient id="spr-brick-basic-red-metro-real-normal-body" x1="0" y1="0" x2="1" y2="1">
<stop offset="0" stop-color="#c8fff8"/>
      <stop offset="0.48" stop-color="#ff526f"/>
      <stop offset="1" stop-color="#07151d"/>
    </linearGradient>
    <radialGradient id="spr-brick-basic-red-metro-real-normal-glow" cx="50%" cy="50%" r="60%">
<stop offset="0" stop-color="#c8fff8" stop-opacity="0.55"/>
      <stop offset="1" stop-color="#ff526f" stop-opacity="0"/>
    </radialGradient>
  </defs>

  <path d="M24 24H34M62 24H72" fill="none" stroke="#c8fff8" stroke-width="2.2" stroke-linecap="round"/>
  <path d="M34 14H62C64 14 66 16 66 18V30C66 32 64 34 62 34H34C32 34 30 32 30 30V18C30 16 32 14 34 14Z" fill="url(#spr-brick-basic-red-metro-real-normal-body)" stroke="#c8fff8" stroke-width="2.2" stroke-linejoin="round"/>
  <path d="M36 17H60M36 31H60" fill="none" stroke="#c8fff8" stroke-width="1.6" stroke-linecap="round" opacity="0.65"/>
  <path d="M38 17V31M46 17V31M54 17V31" fill="none" stroke="#c8fff8" stroke-width="1.4" stroke-linecap="round" opacity="0.5"/>
  <ellipse cx="48" cy="24" rx="20" ry="14" fill="url(#spr-brick-basic-red-metro-real-normal-glow)"/>
</svg>
