<svg xmlns="http://www.w3.org/2000/svg" viewBox="0 0 96 48" role="img" aria-label="Módulo blindado">
  <defs>
    <linearGradient id="spr-brick-metal-steel-high-contrast-normal-body" x1="0" y1="0" x2="1" y2="1">
      <stop offset="0" stop-color="#f7fbff"/>
      <stop offset="0.48" stop-color="#c8d1dc"/>
      <stop offset="1" stop-color="#475569"/>
    </linearGradient>
  </defs>
  <path d="M10 17h11M10 24h11M10 31h11M75 17h11M75 24h11M75 31h11" stroke="#ffffff" stroke-width="3" stroke-linecap="round"/>
  <path d="M25 10h42l6 6v16l-6 6H25l-6-6V16z" fill="url(#spr-brick-metal-steel-high-contrast-normal-body)" stroke="#f7fbff" stroke-width="2.2" stroke-linejoin="round"/>
  <path d="M29 17h36M29 31h36" stroke="#ffffff" stroke-width="2" stroke-linecap="round" opacity=".34"/>
  <circle cx="31" cy="18" r="2.2" fill="#475569" opacity=".8"/>
  <circle cx="65" cy="18" r="2.2" fill="#475569" opacity=".8"/>
  <circle cx="31" cy="30" r="2.2" fill="#475569" opacity=".8"/>
  <circle cx="65" cy="30" r="2.2" fill="#475569" opacity=".8"/>
  <path d="M23 12l5-4M68 40l5-4" stroke="#ffffff42" stroke-width="2" stroke-linecap="round"/>
</svg>
