<svg xmlns="http://www.w3.org/2000/svg" viewBox="0 0 96 48" role="img" aria-label="Integrated chip" data-component-shape="chip" data-terminal-left="0 24" data-terminal-right="96 24">
  <defs>
    <linearGradient id="spr-brick-basic-green-lab-real-normal-body" x1="0" y1="0" x2="1" y2="1">
      <stop offset="0" stop-color="#e7ffff"/>
      <stop offset="0.48" stop-color="#76ffb1"/>
      <stop offset="1" stop-color="#06171b"/>
    </linearGradient>
    <radialGradient id="spr-brick-basic-green-lab-real-normal-glow" cx="50%" cy="50%" r="60%">
      <stop offset="0" stop-color="#e7ffff" stop-opacity="0.55"/>
      <stop offset="1" stop-color="#76ffb1" stop-opacity="0"/>
    </radialGradient>
  </defs>
  <path d="M0 24H21M75 24H96" fill="none" stroke="#aefcff" stroke-width="4" stroke-linecap="round"/>
  <path d="M21 16H31 M21 24H31 M21 32H31 M65 16H75 M65 24H75 M65 32H75 M38 8V13 M48 8V13 M58 8V13 M38 35V40 M48 35V40 M58 35V40" fill="none" stroke="#aefcff" stroke-width="3" stroke-linecap="round"/>
  <path d="M34 12H62C65 12 68 15 68 18V30C68 33 65 36 62 36H34C31 36 28 33 28 30V18C28 15 31 12 34 12ZM44 12C44 15 52 15 52 12" fill="#06171b" stroke="#e7ffff" stroke-width="2.2" stroke-linejoin="round"/>
  <path d="M39 18H57C59 18 61 20 61 22V26C61 28 59 30 57 30H39C37 30 35 28 35 26V22C35 20 37 18 39 18Z" fill="url(#spr-brick-basic-green-lab-real-normal-body)" opacity="0.95"/>
  <path d="M39 24H57M48 18V30" fill="none" stroke="#e7ffff" stroke-width="1.6" stroke-linecap="round" opacity="0.65"/>
</svg>
